<svg width="120" height="120" viewBox="0 0 120 120" fill="none" xmlns="http://www.w3.org/2000/svg">
<path d="M119.999 17.9487C119.999 20.7099 117.761 22.9482 115 22.9482H110.598C110.268 22.9482 110 23.2158 110 23.5459C110 23.876 110.268 24.1436 110.598 24.1436H115C117.761 24.1436 120 26.3821 120 29.1436V46.3828C120 46.7738 119.683 47.0908 119.292 47.0908C118.901 47.0908 118.584 47.4078 118.584 47.7988V71.9609C118.584 72.352 118.901 72.6689 119.292 72.6689C119.683 72.6689 120 72.9859 120 73.377V87.7603C120 92.0995 116.482 95.6172 112.143 95.6172H105.003C104.607 95.6172 104.286 95.9383 104.286 96.3345C104.286 96.7306 104.607 97.0518 105.003 97.0518H112.143C116.482 97.0518 119.999 100.569 119.999 104.908V108.526C119.999 114.863 114.862 120 108.525 120H11.4741C5.13714 120 0 114.863 0 108.526C0 102.189 5.13714 97.0518 11.4741 97.0518H39.2817C39.6779 97.0518 39.999 96.7306 39.999 96.3345C39.999 95.9383 39.6779 95.6172 39.2817 95.6172H29.2856C23.3688 95.6172 18.5723 90.8206 18.5723 84.9038V73.3828C18.5723 72.9886 18.8919 72.6689 19.2861 72.6689C19.6804 72.6689 20 72.3493 20 71.9551V47.8047C20 47.4104 19.6804 47.0908 19.2861 47.0908C18.8919 47.0908 18.5723 46.7712 18.5723 46.377V32.0024C18.5723 27.6621 22.0908 24.1436 26.4312 24.1436H33.6924C34.0225 24.1436 34.29 23.876 34.29 23.5459C34.29 23.2158 34.0225 22.9482 33.6924 22.9482H11.4741C5.13714 22.9482 0 17.8111 0 11.4741C0 5.13714 5.13714 0 11.4741 0H108.525C114.862 0 119.999 5.13714 119.999 11.4741V17.9487ZM51.4229 23.5459C51.4229 23.876 51.6904 24.1436 52.0205 24.1436H60.0005C64.7378 24.1436 68.5781 27.9839 68.5781 32.7212V35.6172C68.5781 41.9539 63.4412 47.0908 57.1045 47.0908H38.5029C31.4397 47.0908 25.7139 52.8167 25.7139 59.8799C25.7139 66.9431 31.4397 72.6689 38.5029 72.6689H57.104C63.441 72.6689 68.5781 77.8271 68.5781 84.1641C68.5781 90.4779 63.4598 95.6172 57.146 95.6172H46.4312C46.035 95.6172 45.7139 95.9383 45.7139 96.3345C45.7139 96.7306 46.035 97.0518 46.4312 97.0518H97.854C98.2501 97.0518 98.5713 96.7306 98.5713 96.3345C98.5713 95.9383 98.2501 95.6172 97.854 95.6172H81.48C75.143 95.6172 70.0059 90.48 70.0059 84.1431C70.0059 77.8061 75.143 72.6689 81.48 72.6689H100.08C107.143 72.6689 112.869 66.9431 112.869 59.8799C112.869 52.8167 107.143 47.0908 100.08 47.0908H81.4795C75.1428 47.0908 70.0059 41.9299 70.0059 35.5932C70.0059 29.2829 75.1214 24.1436 81.4316 24.1436H92.2598C92.5898 24.1436 92.8574 23.876 92.8574 23.5459C92.8574 23.2158 92.5898 22.9482 92.2598 22.9482H52.0205C51.6904 22.9482 51.4229 23.2158 51.4229 23.5459ZM17.1426 46.3765C17.1426 46.771 16.8228 47.0908 16.4282 47.0908C16.0337 47.0908 15.7139 47.4106 15.7139 47.8052V71.9272C15.7139 72.3369 16.0459 72.6689 16.4556 72.6689C16.8652 72.6689 17.1973 73.001 17.1973 73.4106V87.0186C17.1973 91.7674 13.3475 95.6172 8.59863 95.6172C3.84974 95.6172 0 91.7674 0 87.0186V73.3833C0 72.9888 0.319828 72.6689 0.714355 72.6689C1.10888 72.6689 1.42871 72.3491 1.42871 71.9546V47.8052C1.42871 47.4106 1.10888 47.0908 0.714355 47.0908C0.319828 47.0908 0 46.771 0 46.3765V32.7148C0 27.9811 3.8375 24.1436 8.57129 24.1436C13.3051 24.1436 17.1426 27.9811 17.1426 32.7148V46.3765ZM7.14355 71.2407C7.14355 72.0295 7.78299 72.6689 8.57178 72.6689C9.36056 72.6689 10 72.0295 10 71.2407V48.519C10 47.7303 9.36056 47.0908 8.57178 47.0908C7.78299 47.0908 7.14355 47.7303 7.14355 48.519V71.2407ZM111.435 59.7622C111.435 66.0992 106.297 71.2363 99.9604 71.2363H38.6235C32.2866 71.2363 27.1494 66.0992 27.1494 59.7622C27.1494 53.4252 32.2866 48.2881 38.6235 48.2881H99.9604C106.297 48.2881 111.435 53.4252 111.435 59.7622Z" fill="#32302D" fill-opacity="0.65"/>
</svg>
