<svg width="948" height="944" viewBox="0 0 948 944" fill="none" xmlns="http://www.w3.org/2000/svg">
<path d="M947.29 0H0V180.44H947.29V0Z" fill="#231815"/>
<path d="M947.3 189.84H552.64V370.28H947.3V189.84Z" fill="#231815"/>
<path d="M135.33 189.84H0V370.28H135.33V189.84Z" fill="#231815"/>
<path d="M78.9401 336.45L78.9401 607.11H124.05L124.05 336.45H78.9401Z" fill="#231815"/>
<path d="M11.28 334.58L11.28 605.24H56.39L56.39 334.58H11.28Z" fill="#231815"/>
<path d="M778.14 740.56V830.78H823.25V740.56H778.14Z" fill="#231815"/>
<path d="M947.3 571.4H552.64V751.84H947.3V571.4Z" fill="#231815"/>
<path d="M541.37 571.4H146.61V751.84H541.37V571.4Z" fill="#231815"/>
<path d="M135.76 571.4H0V751.84H135.76V571.4Z" fill="#231815"/>
<path d="M947.29 763.12H0V943.56H947.29V763.12Z" fill="#231815"/>
<path d="M879.68 379.69H214.32V560.13H879.68V379.69Z" fill="#231815"/>
<path d="M891.01 335.04V605.7H936.12V335.04H891.01Z" fill="#231815"/>
<path d="M733.03 159.77V204.88H868.36V159.77H733.03Z" fill="#231815"/>
<path d="M157.88 334.57L157.88 605.23H202.99V334.57H157.88Z" fill="#231815"/>
<path d="M541.37 189.84H146.61V370.28H541.37V189.84Z" fill="#231815"/>
<path d="M315.76 731.79V822.01H360.87V731.79H315.76Z" fill="#231815"/>
<path d="M270.69 163.54V208.65H405.94V163.54H270.69Z" fill="#231815"/>
</svg>
